<?xml version="1.0" encoding="UTF-8" standalone="no"?>
<!DOCTYPE svg PUBLIC "-//W3C//DTD SVG 1.1//EN"
 "http://www.w3.org/Graphics/SVG/1.1/DTD/svg11.dtd">
<!-- Generated by graphviz version 9.0.0 (20230911.1827)
 -->
<!-- Pages: 1 -->
<svg width="3654pt" height="349pt"
 viewBox="0.00 0.00 3654.26 348.63" xmlns="http://www.w3.org/2000/svg" xmlns:xlink="http://www.w3.org/1999/xlink">
<g id="graph0" class="graph" transform="scale(1 1) rotate(0) translate(4 344.63)">
<polygon fill="white" stroke="none" points="-4,4 -4,-344.63 3650.26,-344.63 3650.26,4 -4,4"/>
<!-- Start -->
<g id="node1" class="node">
<title>Start</title>
<ellipse fill="none" stroke="black" cx="28.11" cy="-162" rx="28.11" ry="18"/>
<text text-anchor="middle" x="28.11" y="-156.57" font-family="Times New Roman,serif" font-size="14.00">Start</text>
</g>
<!-- Access System -->
<g id="node2" class="node">
<title>Access System</title>
<ellipse fill="none" stroke="black" cx="160.25" cy="-162" rx="68.03" ry="18"/>
<text text-anchor="middle" x="160.25" y="-156.57" font-family="Times New Roman,serif" font-size="14.00">Access System</text>
</g>
<!-- Start&#45;&gt;Access System -->
<g id="edge1" class="edge">
<title>Start&#45;&gt;Access System</title>
<path fill="none" stroke="black" d="M56.71,-162C63.92,-162 72.06,-162 80.53,-162"/>
<polygon fill="black" stroke="black" points="80.28,-165.5 90.28,-162 80.28,-158.5 80.28,-165.5"/>
</g>
<!-- View Menu -->
<g id="node3" class="node">
<title>View Menu</title>
<ellipse fill="none" stroke="black" cx="317.34" cy="-162" rx="53.06" ry="18"/>
<text text-anchor="middle" x="317.34" y="-156.57" font-family="Times New Roman,serif" font-size="14.00">View Menu</text>
</g>
<!-- Access System&#45;&gt;View Menu -->
<g id="edge2" class="edge">
<title>Access System&#45;&gt;View Menu</title>
<path fill="none" stroke="black" d="M228.37,-162C236.4,-162 244.59,-162 252.57,-162"/>
<polygon fill="black" stroke="black" points="252.56,-165.5 262.56,-162 252.56,-158.5 252.56,-165.5"/>
</g>
<!-- Exclusive Gateway_ Need to log in? -->
<g id="node4" class="node">
<title>Exclusive Gateway_ Need to log in?</title>
<ellipse fill="none" stroke="black" cx="551.27" cy="-206" rx="144.88" ry="18"/>
<text text-anchor="middle" x="551.27" y="-200.57" font-family="Times New Roman,serif" font-size="14.00">Exclusive Gateway_ Need to log in?</text>
</g>
<!-- View Menu&#45;&gt;Exclusive Gateway_ Need to log in? -->
<g id="edge3" class="edge">
<title>View Menu&#45;&gt;Exclusive Gateway_ Need to log in?</title>
<path fill="none" stroke="black" d="M364.44,-170.75C391.38,-175.86 426.35,-182.49 458.67,-188.62"/>
<polygon fill="black" stroke="black" points="458.01,-192.06 468.49,-190.48 459.32,-185.18 458.01,-192.06"/>
</g>
<!-- End -->
<g id="node6" class="node">
<title>End</title>
<ellipse fill="none" stroke="black" cx="3619.26" cy="-175" rx="27" ry="18"/>
<text text-anchor="middle" x="3619.26" y="-169.57" font-family="Times New Roman,serif" font-size="14.00">End</text>
</g>
<!-- View Menu&#45;&gt;End -->
<g id="edge26" class="edge">
<title>View Menu&#45;&gt;End</title>
<path fill="none" stroke="black" d="M366.05,-154.49C450.11,-141.92 630.2,-118 783.21,-118 783.21,-118 783.21,-118 3233.34,-118 3377.7,-118 3415.52,-120.87 3556.26,-153 3565.76,-155.17 3575.82,-158.34 3585,-161.59"/>
<polygon fill="black" stroke="black" points="3583.66,-164.83 3594.25,-165.03 3586.1,-158.27 3583.66,-164.83"/>
</g>
<!-- User Login -->
<g id="node5" class="node">
<title>User Login</title>
<ellipse fill="none" stroke="black" cx="784.21" cy="-206" rx="52.06" ry="18"/>
<text text-anchor="middle" x="784.21" y="-200.57" font-family="Times New Roman,serif" font-size="14.00">User Login</text>
</g>
<!-- Exclusive Gateway_ Need to log in?&#45;&gt;User Login -->
<g id="edge4" class="edge">
<title>Exclusive Gateway_ Need to log in?&#45;&gt;User Login</title>
<path fill="none" stroke="black" d="M696.56,-206C704.8,-206 712.82,-206 720.46,-206"/>
<polygon fill="black" stroke="black" points="720.2,-209.5 730.2,-206 720.2,-202.5 720.2,-209.5"/>
</g>
<!-- Exclusive Gateway_ Need to log in?&#45;&gt;End -->
<g id="edge5" class="edge">
<title>Exclusive Gateway_ Need to log in?&#45;&gt;End</title>
<path fill="none" stroke="black" d="M582.45,-223.79C647.2,-260.24 805.27,-340 948.78,-340 948.78,-340 948.78,-340 3233.34,-340 3380.48,-340 3434.83,-350.09 3556.26,-267 3579.41,-251.16 3596.28,-223.58 3606.53,-202.73"/>
<polygon fill="black" stroke="black" points="3609.59,-204.45 3610.65,-193.91 3603.25,-201.5 3609.59,-204.45"/>
</g>
<!-- Verify Credentials -->
<g id="node7" class="node">
<title>Verify Credentials</title>
<ellipse fill="none" stroke="black" cx="949.78" cy="-206" rx="77.51" ry="18"/>
<text text-anchor="middle" x="949.78" y="-200.57" font-family="Times New Roman,serif" font-size="14.00">Verify Credentials</text>
</g>
<!-- User Login&#45;&gt;Verify Credentials -->
<g id="edge6" class="edge">
<title>User Login&#45;&gt;Verify Credentials</title>
<path fill="none" stroke="black" d="M836.52,-206C844.25,-206 852.4,-206 860.64,-206"/>
<polygon fill="black" stroke="black" points="860.39,-209.5 870.39,-206 860.39,-202.5 860.39,-209.5"/>
</g>
<!-- Exclusive Gateway_ Company network? -->
<g id="node8" class="node">
<title>Exclusive Gateway_ Company network?</title>
<ellipse fill="none" stroke="black" cx="1224.64" cy="-206" rx="161.34" ry="18"/>
<text text-anchor="middle" x="1224.64" y="-200.57" font-family="Times New Roman,serif" font-size="14.00">Exclusive Gateway_ Company network?</text>
</g>
<!-- Verify Credentials&#45;&gt;Exclusive Gateway_ Company network? -->
<g id="edge7" class="edge">
<title>Verify Credentials&#45;&gt;Exclusive Gateway_ Company network?</title>
<path fill="none" stroke="black" d="M1027.51,-206C1035.26,-206 1043.33,-206 1051.59,-206"/>
<polygon fill="black" stroke="black" points="1051.43,-209.5 1061.43,-206 1051.43,-202.5 1051.43,-209.5"/>
</g>
<!-- Successful Login and Redirection -->
<g id="node9" class="node">
<title>Successful Login and Redirection</title>
<ellipse fill="none" stroke="black" cx="2128.04" cy="-183" rx="136.39" ry="18"/>
<text text-anchor="middle" x="2128.04" y="-177.57" font-family="Times New Roman,serif" font-size="14.00">Successful Login and Redirection</text>
</g>
<!-- Exclusive Gateway_ Company network?&#45;&gt;Successful Login and Redirection -->
<g id="edge8" class="edge">
<title>Exclusive Gateway_ Company network?&#45;&gt;Successful Login and Redirection</title>
<path fill="none" stroke="black" d="M1382.39,-202C1551.47,-197.69 1818.45,-190.87 1982.59,-186.69"/>
<polygon fill="black" stroke="black" points="1982.32,-190.19 1992.23,-186.44 1982.14,-183.2 1982.32,-190.19"/>
</g>
<!-- Home Access Authorization -->
<g id="node10" class="node">
<title>Home Access Authorization</title>
<ellipse fill="none" stroke="black" cx="1537.41" cy="-229" rx="115.43" ry="18"/>
<text text-anchor="middle" x="1537.41" y="-223.57" font-family="Times New Roman,serif" font-size="14.00">Home Access Authorization</text>
</g>
<!-- Exclusive Gateway_ Company network?&#45;&gt;Home Access Authorization -->
<g id="edge9" class="edge">
<title>Exclusive Gateway_ Company network?&#45;&gt;Home Access Authorization</title>
<path fill="none" stroke="black" d="M1360.59,-215.99C1380.72,-217.48 1401.32,-219 1420.99,-220.46"/>
<polygon fill="black" stroke="black" points="1420.72,-223.95 1430.95,-221.2 1421.24,-216.97 1420.72,-223.95"/>
</g>
<!-- Successful Login and Redirection&#45;&gt;End -->
<g id="edge24" class="edge">
<title>Successful Login and Redirection&#45;&gt;End</title>
<path fill="none" stroke="black" d="M2246.45,-173.75C2355.82,-165.93 2523.47,-156 2669.26,-156 2669.26,-156 2669.26,-156 3233.34,-156 3361.1,-156 3512.43,-166.57 3581.08,-171.94"/>
<polygon fill="black" stroke="black" points="3580.39,-175.4 3590.64,-172.7 3580.95,-168.42 3580.39,-175.4"/>
</g>
<!-- Exclusive Gateway_ User role? -->
<g id="node13" class="node">
<title>Exclusive Gateway_ User role?</title>
<ellipse fill="none" stroke="black" cx="2426.84" cy="-221" rx="126.41" ry="18"/>
<text text-anchor="middle" x="2426.84" y="-215.57" font-family="Times New Roman,serif" font-size="14.00">Exclusive Gateway_ User role?</text>
</g>
<!-- Successful Login and Redirection&#45;&gt;Exclusive Gateway_ User role? -->
<g id="edge13" class="edge">
<title>Successful Login and Redirection&#45;&gt;Exclusive Gateway_ User role?</title>
<path fill="none" stroke="black" d="M2227.87,-195.65C2257.4,-199.43 2289.89,-203.59 2319.86,-207.43"/>
<polygon fill="black" stroke="black" points="2319.35,-210.89 2329.71,-208.69 2320.24,-203.95 2319.35,-210.89"/>
</g>
<!-- Exclusive Gateway_ Authorized? -->
<g id="node11" class="node">
<title>Exclusive Gateway_ Authorized?</title>
<ellipse fill="none" stroke="black" cx="1822.25" cy="-229" rx="133.4" ry="18"/>
<text text-anchor="middle" x="1822.25" y="-223.57" font-family="Times New Roman,serif" font-size="14.00">Exclusive Gateway_ Authorized?</text>
</g>
<!-- Home Access Authorization&#45;&gt;Exclusive Gateway_ Authorized? -->
<g id="edge10" class="edge">
<title>Home Access Authorization&#45;&gt;Exclusive Gateway_ Authorized?</title>
<path fill="none" stroke="black" d="M1653.04,-229C1660.95,-229 1668.98,-229 1677.02,-229"/>
<polygon fill="black" stroke="black" points="1676.87,-232.5 1686.87,-229 1676.87,-225.5 1676.87,-232.5"/>
</g>
<!-- Exclusive Gateway_ Authorized?&#45;&gt;Successful Login and Redirection -->
<g id="edge11" class="edge">
<title>Exclusive Gateway_ Authorized?&#45;&gt;Successful Login and Redirection</title>
<path fill="none" stroke="black" d="M1912.75,-215.45C1948.04,-210.1 1988.77,-203.94 2025.18,-198.42"/>
<polygon fill="black" stroke="black" points="2025.47,-201.92 2034.84,-196.96 2024.42,-195 2025.47,-201.92"/>
</g>
<!-- End_ Access Denied -->
<g id="node12" class="node">
<title>End_ Access Denied</title>
<ellipse fill="none" stroke="black" cx="2128.04" cy="-237" rx="88.99" ry="18"/>
<text text-anchor="middle" x="2128.04" y="-231.57" font-family="Times New Roman,serif" font-size="14.00">End_ Access Denied</text>
</g>
<!-- Exclusive Gateway_ Authorized?&#45;&gt;End_ Access Denied -->
<g id="edge12" class="edge">
<title>Exclusive Gateway_ Authorized?&#45;&gt;End_ Access Denied</title>
<path fill="none" stroke="black" d="M1953.4,-232.43C1978.31,-233.08 2004.02,-233.76 2027.77,-234.39"/>
<polygon fill="black" stroke="black" points="2027.66,-237.88 2037.75,-234.65 2027.84,-230.89 2027.66,-237.88"/>
</g>
<!-- Menu Management -->
<g id="node14" class="node">
<title>Menu Management</title>
<ellipse fill="none" stroke="black" cx="2670.26" cy="-294" rx="81" ry="18"/>
<text text-anchor="middle" x="2670.26" y="-288.57" font-family="Times New Roman,serif" font-size="14.00">Menu Management</text>
</g>
<!-- Exclusive Gateway_ User role?&#45;&gt;Menu Management -->
<g id="edge14" class="edge">
<title>Exclusive Gateway_ User role?&#45;&gt;Menu Management</title>
<path fill="none" stroke="black" d="M2482.62,-237.56C2520.64,-249.06 2571.25,-264.37 2610.18,-276.14"/>
<polygon fill="black" stroke="black" points="2608.79,-279.37 2619.38,-278.92 2610.82,-272.67 2608.79,-279.37"/>
</g>
<!-- Order Placement -->
<g id="node15" class="node">
<title>Order Placement</title>
<ellipse fill="none" stroke="black" cx="2670.26" cy="-221" rx="73.02" ry="18"/>
<text text-anchor="middle" x="2670.26" y="-215.57" font-family="Times New Roman,serif" font-size="14.00">Order Placement</text>
</g>
<!-- Exclusive Gateway_ User role?&#45;&gt;Order Placement -->
<g id="edge15" class="edge">
<title>Exclusive Gateway_ User role?&#45;&gt;Order Placement</title>
<path fill="none" stroke="black" d="M2553.5,-221C2564.44,-221 2575.32,-221 2585.79,-221"/>
<polygon fill="black" stroke="black" points="2585.46,-224.5 2595.46,-221 2585.46,-217.5 2585.46,-224.5"/>
</g>
<!-- Save Changes -->
<g id="node16" class="node">
<title>Save Changes</title>
<ellipse fill="none" stroke="black" cx="2850.3" cy="-294" rx="63.04" ry="18"/>
<text text-anchor="middle" x="2850.3" y="-288.57" font-family="Times New Roman,serif" font-size="14.00">Save Changes</text>
</g>
<!-- Menu Management&#45;&gt;Save Changes -->
<g id="edge16" class="edge">
<title>Menu Management&#45;&gt;Save Changes</title>
<path fill="none" stroke="black" d="M2751.68,-294C2759.61,-294 2767.63,-294 2775.48,-294"/>
<polygon fill="black" stroke="black" points="2775.33,-297.5 2785.33,-294 2775.33,-290.5 2775.33,-297.5"/>
</g>
<!-- Order Placement&#45;&gt;End -->
<g id="edge25" class="edge">
<title>Order Placement&#45;&gt;End</title>
<path fill="none" stroke="black" d="M2736.88,-213.26C2810.33,-205.28 2932.93,-194 3038.82,-194 3038.82,-194 3038.82,-194 3233.34,-194 3361.1,-194 3512.43,-183.43 3581.08,-178.06"/>
<polygon fill="black" stroke="black" points="3580.95,-181.58 3590.64,-177.3 3580.39,-174.6 3580.95,-181.58"/>
</g>
<!-- Submit Order -->
<g id="node18" class="node">
<title>Submit Order</title>
<ellipse fill="none" stroke="black" cx="2850.3" cy="-240" rx="61.54" ry="18"/>
<text text-anchor="middle" x="2850.3" y="-234.57" font-family="Times New Roman,serif" font-size="14.00">Submit Order</text>
</g>
<!-- Order Placement&#45;&gt;Submit Order -->
<g id="edge19" class="edge">
<title>Order Placement&#45;&gt;Submit Order</title>
<path fill="none" stroke="black" d="M2738.06,-228.13C2752.07,-229.62 2766.87,-231.2 2780.94,-232.71"/>
<polygon fill="black" stroke="black" points="2780.22,-236.15 2790.54,-233.73 2780.97,-229.19 2780.22,-236.15"/>
</g>
<!-- Display Confirmation -->
<g id="node17" class="node">
<title>Display Confirmation</title>
<ellipse fill="none" stroke="black" cx="3445.32" cy="-240" rx="89.99" ry="18"/>
<text text-anchor="middle" x="3445.32" y="-234.57" font-family="Times New Roman,serif" font-size="14.00">Display Confirmation</text>
</g>
<!-- Save Changes&#45;&gt;Display Confirmation -->
<g id="edge17" class="edge">
<title>Save Changes&#45;&gt;Display Confirmation</title>
<path fill="none" stroke="black" d="M2913.35,-292.65C2999.88,-290.23 3161.57,-283.72 3298.38,-267 3322.22,-264.08 3348.06,-259.71 3371.27,-255.33"/>
<polygon fill="black" stroke="black" points="3371.79,-258.79 3380.95,-253.47 3370.47,-251.92 3371.79,-258.79"/>
</g>
<!-- Display Confirmation&#45;&gt;End -->
<g id="edge18" class="edge">
<title>Display Confirmation&#45;&gt;End</title>
<path fill="none" stroke="black" d="M3483.61,-223.31C3505.2,-216.58 3532.69,-208.58 3556.26,-199 3565.26,-195.34 3574.65,-190.77 3583.33,-186.47"/>
<polygon fill="black" stroke="black" points="3584.72,-189.69 3592.13,-182.12 3581.62,-183.42 3584.72,-189.69"/>
</g>
<!-- Display Confirmation&#45;&gt;End -->
<g id="edge23" class="edge">
<title>Display Confirmation&#45;&gt;End</title>
<path fill="none" stroke="black" d="M3520.08,-229.68C3532.31,-225.98 3544.75,-221.68 3556.26,-217 3569.72,-211.53 3584.07,-204.01 3595.58,-196.62"/>
<polygon fill="black" stroke="black" points="3597.37,-199.63 3603.62,-191.07 3593.4,-193.87 3597.37,-199.63"/>
</g>
<!-- Encrypt Transactions -->
<g id="node19" class="node">
<title>Encrypt Transactions</title>
<ellipse fill="none" stroke="black" cx="3039.82" cy="-240" rx="90.48" ry="18"/>
<text text-anchor="middle" x="3039.82" y="-234.57" font-family="Times New Roman,serif" font-size="14.00">Encrypt Transactions</text>
</g>
<!-- Submit Order&#45;&gt;Encrypt Transactions -->
<g id="edge20" class="edge">
<title>Submit Order&#45;&gt;Encrypt Transactions</title>
<path fill="none" stroke="black" d="M2912.18,-240C2920.36,-240 2928.92,-240 2937.57,-240"/>
<polygon fill="black" stroke="black" points="2937.45,-243.5 2947.45,-240 2937.45,-236.5 2937.45,-243.5"/>
</g>
<!-- Process Order -->
<g id="node20" class="node">
<title>Process Order</title>
<ellipse fill="none" stroke="black" cx="3232.34" cy="-240" rx="65.04" ry="18"/>
<text text-anchor="middle" x="3232.34" y="-234.57" font-family="Times New Roman,serif" font-size="14.00">Process Order</text>
</g>
<!-- Encrypt Transactions&#45;&gt;Process Order -->
<g id="edge21" class="edge">
<title>Encrypt Transactions&#45;&gt;Process Order</title>
<path fill="none" stroke="black" d="M3130.78,-240C3139.1,-240 3147.47,-240 3155.64,-240"/>
<polygon fill="black" stroke="black" points="3155.52,-243.5 3165.52,-240 3155.52,-236.5 3155.52,-243.5"/>
</g>
<!-- Process Order&#45;&gt;Display Confirmation -->
<g id="edge22" class="edge">
<title>Process Order&#45;&gt;Display Confirmation</title>
<path fill="none" stroke="black" d="M3297.79,-240C3312.32,-240 3328.08,-240 3343.7,-240"/>
<polygon fill="black" stroke="black" points="3343.51,-243.5 3353.51,-240 3343.51,-236.5 3343.51,-243.5"/>
</g>
<!-- Submit Query -->
<g id="node21" class="node">
<title>Submit Query</title>
<ellipse fill="none" stroke="black" cx="3039.82" cy="-72" rx="62.54" ry="18"/>
<text text-anchor="middle" x="3039.82" y="-66.58" font-family="Times New Roman,serif" font-size="14.00">Submit Query</text>
</g>
<!-- Process Query -->
<g id="node22" class="node">
<title>Process Query</title>
<ellipse fill="none" stroke="black" cx="3232.34" cy="-72" rx="66.03" ry="18"/>
<text text-anchor="middle" x="3232.34" y="-66.58" font-family="Times New Roman,serif" font-size="14.00">Process Query</text>
</g>
<!-- Submit Query&#45;&gt;Process Query -->
<g id="edge27" class="edge">
<title>Submit Query&#45;&gt;Process Query</title>
<path fill="none" stroke="black" d="M3102.68,-72C3119.26,-72 3137.38,-72 3154.66,-72"/>
<polygon fill="black" stroke="black" points="3154.35,-75.5 3164.35,-72 3154.35,-68.5 3154.35,-75.5"/>
</g>
<!-- Load Query Results -->
<g id="node23" class="node">
<title>Load Query Results</title>
<ellipse fill="none" stroke="black" cx="3445.32" cy="-72" rx="85.49" ry="18"/>
<text text-anchor="middle" x="3445.32" y="-66.58" font-family="Times New Roman,serif" font-size="14.00">Load Query Results</text>
</g>
<!-- Process Query&#45;&gt;Load Query Results -->
<g id="edge28" class="edge">
<title>Process Query&#45;&gt;Load Query Results</title>
<path fill="none" stroke="black" d="M3298.65,-72C3314.29,-72 3331.3,-72 3348.01,-72"/>
<polygon fill="black" stroke="black" points="3348,-75.5 3358,-72 3348,-68.5 3348,-75.5"/>
</g>
<!-- Load Query Results&#45;&gt;End -->
<g id="edge29" class="edge">
<title>Load Query Results&#45;&gt;End</title>
<path fill="none" stroke="black" d="M3510.32,-84.01C3526.11,-88.72 3542.44,-95.18 3556.26,-104 3574.37,-115.56 3590.2,-133.93 3601.34,-149.08"/>
<polygon fill="black" stroke="black" points="3598.47,-151.08 3607.08,-157.24 3604.19,-147.05 3598.47,-151.08"/>
</g>
<!-- Log Out -->
<g id="node24" class="node">
<title>Log Out</title>
<ellipse fill="none" stroke="black" cx="3232.34" cy="-18" rx="42.08" ry="18"/>
<text text-anchor="middle" x="3232.34" y="-12.57" font-family="Times New Roman,serif" font-size="14.00">Log Out</text>
</g>
<!-- Ensure Secure Termination -->
<g id="node25" class="node">
<title>Ensure Secure Termination</title>
<ellipse fill="none" stroke="black" cx="3445.32" cy="-18" rx="110.94" ry="18"/>
<text text-anchor="middle" x="3445.32" y="-12.57" font-family="Times New Roman,serif" font-size="14.00">Ensure Secure Termination</text>
</g>
<!-- Log Out&#45;&gt;Ensure Secure Termination -->
<g id="edge30" class="edge">
<title>Log Out&#45;&gt;Ensure Secure Termination</title>
<path fill="none" stroke="black" d="M3274.77,-18C3288.95,-18 3305.61,-18 3322.85,-18"/>
<polygon fill="black" stroke="black" points="3322.73,-21.5 3332.73,-18 3322.73,-14.5 3322.73,-21.5"/>
</g>
<!-- Ensure Secure Termination&#45;&gt;End -->
<g id="edge31" class="edge">
<title>Ensure Secure Termination&#45;&gt;End</title>
<path fill="none" stroke="black" d="M3529.68,-29.93C3539.27,-33.7 3548.41,-38.61 3556.26,-45 3587.76,-70.64 3604.25,-116.08 3612.09,-145.87"/>
<polygon fill="black" stroke="black" points="3608.64,-146.48 3614.42,-155.36 3615.44,-144.81 3608.64,-146.48"/>
</g>
</g>
</svg>
