<?xml version="1.0" encoding="UTF-8" standalone="no"?>
<!DOCTYPE svg PUBLIC "-//W3C//DTD SVG 1.1//EN"
 "http://www.w3.org/Graphics/SVG/1.1/DTD/svg11.dtd">
<!-- Generated by graphviz version 9.0.0 (20230911.1827)
 -->
<!-- Pages: 1 -->
<svg width="2452pt" height="98pt"
 viewBox="0.00 0.00 2451.88 98.00" xmlns="http://www.w3.org/2000/svg" xmlns:xlink="http://www.w3.org/1999/xlink">
<g id="graph0" class="graph" transform="scale(1 1) rotate(0) translate(4 94)">
<polygon fill="white" stroke="none" points="-4,4 -4,-94 2447.88,-94 2447.88,4 -4,4"/>
<!-- Start -->
<g id="node1" class="node">
<title>Start</title>
<ellipse fill="none" stroke="black" cx="28.11" cy="-41" rx="28.11" ry="18"/>
<text text-anchor="middle" x="28.11" y="-35.58" font-family="Times New Roman,serif" font-size="14.00">Start</text>
</g>
<!-- Open App -->
<g id="node2" class="node">
<title>Open App</title>
<ellipse fill="none" stroke="black" cx="142.29" cy="-41" rx="50.07" ry="18"/>
<text text-anchor="middle" x="142.29" y="-35.58" font-family="Times New Roman,serif" font-size="14.00">Open App</text>
</g>
<!-- Start&#45;&gt;Open App -->
<g id="edge1" class="edge">
<title>Start&#45;&gt;Open App</title>
<path fill="none" stroke="black" d="M56.55,-41C63.86,-41 72.07,-41 80.41,-41"/>
<polygon fill="black" stroke="black" points="80.29,-44.5 90.29,-41 80.29,-37.5 80.29,-44.5"/>
</g>
<!-- Detect Current Location -->
<g id="node3" class="node">
<title>Detect Current Location</title>
<ellipse fill="none" stroke="black" cx="328.82" cy="-41" rx="100.46" ry="18"/>
<text text-anchor="middle" x="328.82" y="-35.58" font-family="Times New Roman,serif" font-size="14.00">Detect Current Location</text>
</g>
<!-- Open App&#45;&gt;Detect Current Location -->
<g id="edge2" class="edge">
<title>Open App&#45;&gt;Detect Current Location</title>
<path fill="none" stroke="black" d="M192.74,-41C200.3,-41 208.35,-41 216.61,-41"/>
<polygon fill="black" stroke="black" points="216.47,-44.5 226.47,-41 216.47,-37.5 216.47,-44.5"/>
</g>
<!-- Display Map -->
<g id="node4" class="node">
<title>Display Map</title>
<ellipse fill="none" stroke="black" cx="523.33" cy="-41" rx="58.05" ry="18"/>
<text text-anchor="middle" x="523.33" y="-35.58" font-family="Times New Roman,serif" font-size="14.00">Display Map</text>
</g>
<!-- Detect Current Location&#45;&gt;Display Map -->
<g id="edge3" class="edge">
<title>Detect Current Location&#45;&gt;Display Map</title>
<path fill="none" stroke="black" d="M429.74,-41C437.76,-41 445.76,-41 453.49,-41"/>
<polygon fill="black" stroke="black" points="453.49,-44.5 463.49,-41 453.49,-37.5 453.49,-44.5"/>
</g>
<!-- Exclusive Gateway_ User Input? -->
<g id="node5" class="node">
<title>Exclusive Gateway_ User Input?</title>
<ellipse fill="none" stroke="black" cx="749.28" cy="-41" rx="131.9" ry="18"/>
<text text-anchor="middle" x="749.28" y="-35.58" font-family="Times New Roman,serif" font-size="14.00">Exclusive Gateway_ User Input?</text>
</g>
<!-- Display Map&#45;&gt;Exclusive Gateway_ User Input? -->
<g id="edge4" class="edge">
<title>Display Map&#45;&gt;Exclusive Gateway_ User Input?</title>
<path fill="none" stroke="black" d="M581.71,-41C589.29,-41 597.3,-41 605.56,-41"/>
<polygon fill="black" stroke="black" points="605.43,-44.5 615.43,-41 605.43,-37.5 605.43,-44.5"/>
</g>
<!-- Search Location -->
<g id="node6" class="node">
<title>Search Location</title>
<ellipse fill="none" stroke="black" cx="988.71" cy="-64" rx="71.52" ry="18"/>
<text text-anchor="middle" x="988.71" y="-58.58" font-family="Times New Roman,serif" font-size="14.00">Search Location</text>
</g>
<!-- Exclusive Gateway_ User Input?&#45;&gt;Search Location -->
<g id="edge5" class="edge">
<title>Exclusive Gateway_ User Input?&#45;&gt;Search Location</title>
<path fill="none" stroke="black" d="M858.23,-51.46C875.74,-53.15 893.58,-54.88 910.18,-56.49"/>
<polygon fill="black" stroke="black" points="909.66,-59.96 919.95,-57.44 910.34,-52.99 909.66,-59.96"/>
</g>
<!-- End -->
<g id="node7" class="node">
<title>End</title>
<ellipse fill="none" stroke="black" cx="2134.43" cy="-18" rx="27" ry="18"/>
<text text-anchor="middle" x="2134.43" y="-12.57" font-family="Times New Roman,serif" font-size="14.00">End</text>
</g>
<!-- Exclusive Gateway_ User Input?&#45;&gt;End -->
<g id="edge6" class="edge">
<title>Exclusive Gateway_ User Input?&#45;&gt;End</title>
<path fill="none" stroke="black" d="M863.75,-31.71C951.46,-25.33 1075.95,-18 1185.21,-18 1185.21,-18 1185.21,-18 1560.27,-18 1762.16,-18 2004.05,-18 2095.73,-18"/>
<polygon fill="black" stroke="black" points="2095.64,-21.5 2105.64,-18 2095.64,-14.5 2095.64,-21.5"/>
</g>
<!-- Show Search Results -->
<g id="node8" class="node">
<title>Show Search Results</title>
<ellipse fill="none" stroke="black" cx="1186.21" cy="-64" rx="89.99" ry="18"/>
<text text-anchor="middle" x="1186.21" y="-58.58" font-family="Times New Roman,serif" font-size="14.00">Show Search Results</text>
</g>
<!-- Search Location&#45;&gt;Show Search Results -->
<g id="edge7" class="edge">
<title>Search Location&#45;&gt;Show Search Results</title>
<path fill="none" stroke="black" d="M1060.57,-64C1068.36,-64 1076.41,-64 1084.48,-64"/>
<polygon fill="black" stroke="black" points="1084.38,-67.5 1094.38,-64 1084.38,-60.5 1084.38,-67.5"/>
</g>
<!-- Select Location -->
<g id="node9" class="node">
<title>Select Location</title>
<ellipse fill="none" stroke="black" cx="1380.73" cy="-64" rx="68.53" ry="18"/>
<text text-anchor="middle" x="1380.73" y="-58.58" font-family="Times New Roman,serif" font-size="14.00">Select Location</text>
</g>
<!-- Show Search Results&#45;&gt;Select Location -->
<g id="edge8" class="edge">
<title>Show Search Results&#45;&gt;Select Location</title>
<path fill="none" stroke="black" d="M1276.43,-64C1284.42,-64 1292.48,-64 1300.39,-64"/>
<polygon fill="black" stroke="black" points="1300.32,-67.5 1310.32,-64 1300.32,-60.5 1300.32,-67.5"/>
</g>
<!-- Display Location -->
<g id="node10" class="node">
<title>Display Location</title>
<ellipse fill="none" stroke="black" cx="1559.27" cy="-64" rx="74.02" ry="18"/>
<text text-anchor="middle" x="1559.27" y="-58.58" font-family="Times New Roman,serif" font-size="14.00">Display Location</text>
</g>
<!-- Select Location&#45;&gt;Display Location -->
<g id="edge9" class="edge">
<title>Select Location&#45;&gt;Display Location</title>
<path fill="none" stroke="black" d="M1449.73,-64C1457.59,-64 1465.67,-64 1473.71,-64"/>
<polygon fill="black" stroke="black" points="1473.52,-67.5 1483.52,-64 1473.52,-60.5 1473.52,-67.5"/>
</g>
<!-- Exclusive Gateway_ Navigation Requested? -->
<g id="node11" class="node">
<title>Exclusive Gateway_ Navigation Requested?</title>
<ellipse fill="none" stroke="black" cx="1843.11" cy="-64" rx="173.82" ry="18"/>
<text text-anchor="middle" x="1843.11" y="-58.58" font-family="Times New Roman,serif" font-size="14.00">Exclusive Gateway_ Navigation Requested?</text>
</g>
<!-- Display Location&#45;&gt;Exclusive Gateway_ Navigation Requested? -->
<g id="edge10" class="edge">
<title>Display Location&#45;&gt;Exclusive Gateway_ Navigation Requested?</title>
<path fill="none" stroke="black" d="M1633.59,-64C1641.27,-64 1649.3,-64 1657.55,-64"/>
<polygon fill="black" stroke="black" points="1657.42,-67.5 1667.42,-64 1657.42,-60.5 1657.42,-67.5"/>
</g>
<!-- Exclusive Gateway_ Navigation Requested?&#45;&gt;End -->
<g id="edge12" class="edge">
<title>Exclusive Gateway_ Navigation Requested?&#45;&gt;End</title>
<path fill="none" stroke="black" d="M1940.45,-48.68C1993.93,-40.18 2057.36,-30.09 2096.51,-23.87"/>
<polygon fill="black" stroke="black" points="2097.02,-27.33 2106.34,-22.31 2095.92,-20.42 2097.02,-27.33"/>
</g>
<!-- Get Route Options -->
<g id="node12" class="node">
<title>Get Route Options</title>
<ellipse fill="none" stroke="black" cx="2134.43" cy="-72" rx="81.5" ry="18"/>
<text text-anchor="middle" x="2134.43" y="-66.58" font-family="Times New Roman,serif" font-size="14.00">Get Route Options</text>
</g>
<!-- Exclusive Gateway_ Navigation Requested?&#45;&gt;Get Route Options -->
<g id="edge11" class="edge">
<title>Exclusive Gateway_ Navigation Requested?&#45;&gt;Get Route Options</title>
<path fill="none" stroke="black" d="M2011.57,-68.63C2021.9,-68.92 2032.07,-69.2 2041.86,-69.47"/>
<polygon fill="black" stroke="black" points="2041.57,-72.96 2051.66,-69.74 2041.76,-65.96 2041.57,-72.96"/>
</g>
<!-- Display Route Options -->
<g id="node13" class="node">
<title>Display Route Options</title>
<ellipse fill="none" stroke="black" cx="2347.9" cy="-72" rx="95.97" ry="18"/>
<text text-anchor="middle" x="2347.9" y="-66.58" font-family="Times New Roman,serif" font-size="14.00">Display Route Options</text>
</g>
<!-- Get Route Options&#45;&gt;Display Route Options -->
<g id="edge13" class="edge">
<title>Get Route Options&#45;&gt;Display Route Options</title>
<path fill="none" stroke="black" d="M2216.28,-72C2224.13,-72 2232.17,-72 2240.22,-72"/>
<polygon fill="black" stroke="black" points="2240.07,-75.5 2250.07,-72 2240.07,-68.5 2240.07,-75.5"/>
</g>
</g>
</svg>
